<svg xmlns="http://www.w3.org/2000/svg" version="1.1" xmlns:xlink="http://www.w3.org/1999/xlink" xmlns:svgjs="http://svgjs.dev/svgjs" width="1500" height="1500" viewBox="0 0 1500 1500"><rect width="1500" height="1500" fill="#000000"></rect><g transform="matrix(0.6666666666666666,0,0,0.6666666666666666,250.00007343750008,187.66666666666674)"><svg viewBox="0 0 320 360" data-background-color="#ffffff" preserveAspectRatio="xMidYMid meet" height="1687" width="1500" xmlns="http://www.w3.org/2000/svg" xmlns:xlink="http://www.w3.org/1999/xlink"><g id="tight-bounds" transform="matrix(1,0,0,1,0.000023499999997511622,0)"><svg viewBox="0 0 320 360" height="360" width="320"><g><svg></svg></g><g><svg viewBox="0 0 320 360" height="360" width="320"><g><path transform="translate(-74.99272,-51.79039) scale(4.65793,4.65793)" d="M20.6 59.9l0.8 1-0.4-1.3c-0.1-0.6-0.8 0.1-0.4 0.3M21.5 59.3c0.3 0.5 0.6 1 0.6 1.5 0 0.7 0.6 1 1.1 1.2-0.7-0.8-1.1-3-1.7-2.7M59.9 16.9c1.7 0 3.3-0.2 5.1 0.2 4.4 1.1 8.1 3.3 10.6 6.4l7 11.2c0.3 2.8 0.9 5.9 0.8 9.3 0.7 0 0.6-1 1.4-1.2-0.8 2-1.2 4.5-1.4 7.4-0.5-1.6 0-4 0.1-5.3-0.7 1.1-1.1 0.3-1.1-0.2 0.1-0.8-0.3-0.7-0.6-1-1.1-1-1.8-2.1-2.6-3.8 0.5-1.3 0.6-3.2-1-4.2-0.5-0.3-1.1-0.8-1.4-1.6-0.4-1.1-1.1-2.4-0.9-4.1 0.1-0.5-1.5 1.1-2.4 0.4-3.9-2.7-7.8-5.8-12.5-8.4-2.5 0-4.3-0.9-5.2-2-0.8-1-0.2-2.3 1-2.4 0.7 0 1.5-0.2 2.1 0.2 0.1-0.4 0.5-0.9 1-0.9M50 14.6l0.2 0.1c1 0.2 1.5 1.6 2.6 1.1 0 0.7 0.1 1.4-0.1 1.9-0.3 0.8-1.2 0.8-1.9 0.8-6.7-0.4-10.6 2.4-14.7 4.8-1.1 0.7-2.3 1.2-3.2 2.1-4.3 4-9 7.7-10.1 15.1l-0.9 8.2c-0.1 0.9-1.1 1.8-0.9 2.9l0.7 4.9c-0.7-0.7-1.1 0.2-0.9 0.6 0.1 0.3 0.5 1.3 1.1 0.4 0.8 1.5 1.6 4.4 2.7 5.7 3.4 4 7.8 7.6 11.4 11.2 0.9-0.2 1.6-0.2 1.8-0.8 0.3 0.6-0.3 1.2-0.8 1.3 1.6 1 3.4 1.9 5.8 2.1 3.1 0.2 6 0.7 8.7 1.4 1.4-0.4 2.8-0.6 4.3-0.7 0.5 0 0.8-0.8 1.4-1l0.1-1c0.6 0.9 0.5-0.3 0.1-0.9 0.7 0.6 0.9 1.1 1.2 1.5 0-0.3 0.8-1.4 0.8-0.1l0.2-1.3c0.3-0.2 0.4 1.1 0.7 0.2 0.3-0.9 0.9-0.2 1.5-0.5-0.2 0.4-0.1 1.2 0.6 0.7l0.8-0.7c0.5 1.2 1.3 0.7 1.7 0.5 4.4-2.8 8.8-6.1 13-9.4l-0.1 1.3 0.5-1.6c0.5 0.5 0.9 0.1 1.1-0.2 0.6-1 1.4-2 2.7-2.9-1.6 4.3-3.5 7.7-5.9 10.5l-1 1.2c0 0.7-0.2 1.6-1 1.7-0.4 0.1-1.2-0.2-1.8 0.4-0.3 0.4 0.7 1.2-0.1 0.6-0.7-0.5-1.4 0-2.2 0.2-0.6 0.2 0.4 0.8 0.6 1.2 0.2 0.4 0.4 0.8 0.3 1.3l-1.1-1.2c-1.3 0.7-2.1 2-3.2 3-0.5 0.4-0.3 1.1-0.3 1.7-0.7 0-1.5-0.2-1.9 0.2-0.3 0.4-0.2 1-0.2 1.6-1-0.1-1.1-1.6-2-1.3-0.9 0.2-1.9 0.3-2.7 0.8 0.6 1.2-1 0.5-0.8 0.7-1.5-0.9-2.8-1.6-4.4-1-3.4-1.1-7.6-0.6-10.7-0.2 0-0.5 0.1-1-0.1-1.1-0.2 0.5-0.8 0.3-0.7 0.3-1.9-1.3-3.8-2.1-5.8-3.2-1.8 0.2-3.5-0.7-4-1.2-1.4-1.3-3-0.6-4.3-0.9-2.8-0.7-3.8-3.6-4.1-5.6-0.2-1-1-1.4-1.3-1.3-1.3-4.2-3.3-8-4.9-11.9-0.4-1-0.3-2-0.3-3.1 0.5 0.2 1 0.1 0.9-0.6-0.5-3.3-1.7-5.8-3-8.2 0.7-3.4 0.8-7.4 2.4-10.4 1.4-2.7 4-4.1 5.8-6.4 0.6-0.8 0.6-1.9 1.2-2.6 2-2 4-4.1 6.2-5.9 1-0.8 2.2 0 3.7-0.3 0.5-1.8 2.5-3.4 4.4-2.9 0.8 0.2 2.4-1.9 2.9-2.1 0.8-0.3 0.4 0.8 0.4 1.5 1.9-1.5 4.5-2.3 6.9-3.2" fill="#ffffff" fill-rule="nonzero" stroke="none" stroke-width="1" stroke-linecap="butt" stroke-linejoin="miter" stroke-miterlimit="10" stroke-dasharray="" stroke-dashoffset="0" font-family="none" font-weight="none" font-size="none" text-anchor="none" style="mix-blend-mode: normal" data-fill-palette-color="tertiary"></path></g><g transform="matrix(1,0,0,1,64,108.61486215813099)"><svg viewBox="0 0 192 142.77027568373802" height="142.77027568373802" width="192"><g><svg viewBox="0 0 192 142.77027568373802" height="142.77027568373802" width="192"><g><svg viewBox="0 0 192 142.77027568373802" height="142.77027568373802" width="192"><g transform="matrix(1,0,0,1,0,83.853273409139)"><svg viewBox="0 0 192 58.917002274599014" height="58.917002274599014" width="192"><g id="textblocktransform"><svg viewBox="0 0 192 58.917002274599014" height="58.917002274599014" width="192" id="textblock"><g><svg viewBox="0 0 192 41.51534391534392" height="41.51534391534392" width="192"><g transform="matrix(1,0,0,1,0,0)"><svg width="192" viewBox="3.8499999999999996 -46.2 283.47999999999996 61.300000000000004" height="41.51534391534392" data-palette-color="#a27abf"><path d="M15.7-18.9Q18.55-19.45 20.4-19.45L20.4-19.45Q24.65-19.45 27.63-17.38 30.6-15.3 30.6-11.25L30.6-11.25Q30.6-6.6 27.13-3.28 23.65 0.05 18.65 1.75 13.65 3.45 9.1 3.55L9.1 3.55 8.8 2.35Q15.25 1 20.25-2.27 25.25-5.55 25.25-10.9L25.25-10.9Q25.25-12.85 24.05-14.4 22.85-15.95 20.98-16.8 19.1-17.65 17.05-17.65L17.05-17.65Q13.55-17.65 10.2-16.4L10.2-16.4 9.8-17.75Q14.15-19.6 17.55-22.6 20.95-25.6 20.95-29.25L20.95-29.25Q20.95-31.15 19.78-32.3 18.6-33.45 16.55-33.45L16.55-33.45Q13.6-33.45 11.8-31.28 10-29.1 9.25-26.13 8.5-23.15 8.5-20.45L8.5-20.45 8.5-1.3 3.85 0.4 3.85-17.7Q3.85-23.05 5.98-27.2 8.1-31.35 11.9-33.68 15.7-36 20.55-36L20.55-36Q22.95-36 24.6-34.75 26.25-33.5 26.25-31.2L26.25-31.2Q26.25-27.9 22.93-24.58 19.6-21.25 15.6-19.1L15.6-19.1 15.7-18.9ZM40.95-41.7L39.25-30.05 37.6-29.45 35.55-39.85 40.95-41.7ZM40.9-24.8L40.9-4.2Q40.9-3.45 41.27-2.98 41.65-2.5 42.35-2.5L42.35-2.5Q42.9-2.5 43.57-3 44.25-3.5 44.95-4.45L44.95-4.45 45.75-3.7Q44.6-1.55 42.97-0.65 41.35 0.25 40 0.25L40 0.25Q38.2 0.25 37.22-0.9 36.25-2.05 36.25-4.8L36.25-4.8 36.25-23 40.9-24.8ZM68.25-25.45Q70.25-25.45 70.84-23.98 71.45-22.5 71.45-19.9L71.45-19.9 71.45-18.35 71.45-4.2Q71.45-3.65 71.8-3.08 72.15-2.5 72.8-2.5L72.8-2.5Q73.65-2.5 74.25-3.05 74.84-3.6 75.45-4.45L75.45-4.45 76.2-3.7Q75.45-2.1 73.95-0.93 72.45 0.25 71.09 0.25L71.09 0.25Q69.09 0.25 68-1 66.9-2.25 66.9-4.8L66.9-4.8 66.9-18.05Q66.9-18.8 66.75-19.3 66.59-19.8 66-19.8L66-19.8Q63.95-19.8 61.8-15.85 59.65-11.9 58.12-7.03 56.6-2.15 56.6-0.6L56.6-0.6 52.25 0.7 52.25-20.7Q52.25-21.4 51.87-21.98 51.5-22.55 50.8-22.55L50.8-22.55Q49.6-22.55 48.2-20.4L48.2-20.4 47.45-21.2Q48.1-23 49.6-24.23 51.1-25.45 52.6-25.45L52.6-25.45Q54.7-25.45 55.72-24.45 56.75-23.45 56.75-21.7L56.75-21.7 56.75-8.55 56.95-8.55Q58.3-13 59.55-16.3 60.8-19.6 63.05-22.53 65.3-25.45 68.25-25.45L68.25-25.45ZM85.84-46.2L85.84-10.65 86.04-10.65Q86.54-13.4 87.82-16.82 89.09-20.25 91.24-22.85 93.39-25.45 96.29-25.45L96.29-25.45Q97.84-25.45 98.57-24.33 99.29-23.2 99.42-21.8 99.54-20.4 99.54-18.1L99.54-18.1 99.54-4.2Q99.54-3.6 99.92-3.05 100.29-2.5 101.09-2.5L101.09-2.5Q102.39-2.5 103.74-4.45L103.74-4.45 104.34-3.7Q103.64-2.05 102.12-0.9 100.59 0.25 99.04 0.25L99.04 0.25Q95.14 0.25 95.14-4.8L95.14-4.8 95.14-18.05Q95.14-18.7 94.87-19.25 94.59-19.8 93.94-19.8L93.94-19.8Q91.39-19.8 89.54-15.83 87.69-11.85 86.69-7.08 85.69-2.3 85.69-0.6L85.69-0.6 81.24 0.7 81.24-44.3 85.84-46.2ZM120.59-34.8L125.19-36.55 125.19-26.85Q126.29-31.05 128.86-33.77 131.44-36.5 135.69-36.5L135.69-36.5Q138.69-36.5 140.24-34.45 141.79-32.4 141.79-29.35L141.79-29.35 141.79-5.35Q141.79-3.95 142.36-3.1 142.94-2.25 143.99-2.25L143.99-2.25Q144.84-2.25 145.69-2.78 146.54-3.3 146.99-4.05L146.99-4.05 147.69-3.4Q147.04-1.9 145.59-0.83 144.14 0.25 142.24 0.25L142.24 0.25Q139.94 0.25 138.54-1.33 137.14-2.9 137.14-5.9L137.14-5.9 137.14-27.35Q137.14-30.15 136.51-32 135.89-33.85 133.64-33.85L133.64-33.85Q130.79-33.85 128.89-31.03 126.99-28.2 126.09-24.4 125.19-20.6 125.19-17.85L125.19-17.85 125.19-1.2 120.59 0.65 120.59-34.8ZM161.94-25.65Q164.34-25.65 166.54-24.33 168.74-23 169.89-20.75L169.89-20.75 166.29-18.8Q165.54-20.55 164.14-21.55 162.74-22.55 161.04-22.55L161.04-22.55Q158.54-22.55 156.66-20.85 154.79-19.15 153.76-16.65 152.74-14.15 152.74-11.9L152.74-11.9Q152.74-8.4 154.21-5.7 155.69-3 158.94-3L158.94-3Q162.64-3 164.04-6.33 165.44-9.65 165.44-13.5L165.44-13.5 165.44-15.75 169.94-17.6 169.94-2.3Q169.94 1.45 168.19 5.45 166.44 9.45 163.36 12.1 160.29 14.75 156.44 14.75L156.44 14.75Q153.69 14.75 152.09 12.85L152.09 12.85 156.34 9.25Q156.69 10.15 157.51 10.7 158.34 11.25 159.59 11.25L159.59 11.25Q163.34 11.25 164.46 8.47 165.59 5.7 165.59 1.5L165.59 1.5 165.44-2.6Q165.44-4.45 165.79-5.6L165.79-5.6 165.44-5.6Q163.59-2.7 161.86-1.05 160.14 0.6 157.74 0.6L157.74 0.6Q153.44 0.6 151.14-2.23 148.84-5.05 148.84-9.4L148.84-9.4Q148.84-13.65 150.56-17.38 152.29-21.1 155.31-23.38 158.34-25.65 161.94-25.65L161.94-25.65ZM197.88-25.7L197.88-4.35Q197.88-3.6 198.26-3.13 198.63-2.65 199.33-2.65L199.33-2.65Q200.38-2.65 201.88-4.6L201.88-4.6 202.63-3.85Q201.58-1.6 200.11-0.68 198.63 0.25 198.63 0.25 198.63 0.25 197.33 0.25L197.33 0.25Q195.73 0.25 194.91-0.65 194.08-1.55 193.73-3.88 193.38-6.2 193.38-10.8L193.38-10.8Q193.38-13.55 193.43-15.2L193.43-15.2 193.03-16.2 192.88-16.2Q191.58-10.05 189.26-4.73 186.93 0.6 182.63 0.6L182.63 0.6Q181.03 0.6 180.31-0.2 179.58-1 179.43-2.38 179.28-3.75 179.28-6.6L179.28-6.6 179.28-20.7Q179.28-21.55 178.91-22.05 178.53-22.55 177.88-22.55L177.88-22.55Q176.68-22.55 175.18-20.55L175.18-20.55 174.58-21.35Q175.38-23.25 176.61-24.18 177.83-25.1 178.91-25.33 179.98-25.55 179.98-25.4L179.98-25.4Q179.93-25.4 179.83-25.38 179.73-25.35 179.53-25.35L179.53-25.35Q183.83-25.35 183.83-20.4L183.83-20.4 183.83-6Q183.83-4.9 184.08-4.42 184.33-3.95 184.68-3.95L184.68-3.95Q186.83-3.95 188.68-8.15 190.53-12.35 191.71-17.4 192.88-22.45 192.88-23.45L192.88-23.45 197.88-25.7ZM227.53-25.7L227.53-2.7Q227.53 2 225.66 6.1 223.78 10.2 220.68 12.65 217.58 15.1 214.08 15.1L214.08 15.1Q212.73 15.1 211.53 14.7 210.33 14.3 209.03 13.35L209.03 13.35 212.53 8.9Q213.58 9.95 215.01 10.6 216.43 11.25 217.68 11.25L217.68 11.25Q219.23 11.25 220.48 9.4 221.73 7.55 222.46 4.3 223.18 1.05 223.18-3.05L223.18-3.05Q223.18-12.35 223.23-15L223.23-15 223.23-18 222.93-18Q218.83 0.6 212.28 0.6L212.28 0.6Q210.83 0.6 210.13 0.03 209.43-0.55 209.18-2.05 208.93-3.55 208.93-6.6L208.93-6.6 208.93-20.7Q208.93-21.5 208.53-22.05 208.13-22.6 207.53-22.6L207.53-22.6Q206.28-22.6 204.88-20.55L204.88-20.55 204.08-21.35Q205.18-23.7 206.26-24.55 207.33-25.4 209.38-25.4L209.38-25.4Q211.38-25.4 212.38-24.13 213.38-22.85 213.38-20.4L213.38-20.4 213.38-6.75Q213.38-4.9 214.43-4.9L214.43-4.9Q215.68-4.9 217.63-8.3 219.58-11.7 221.08-16.18 222.58-20.65 222.58-23.45L222.58-23.45 227.53-25.7ZM248.13-25.45Q250.83-25.45 252.63-24 254.43-22.55 254.43-19.7L254.43-19.7Q254.43-17.4 251.95-14.58 249.48-11.75 246.15-9.4 242.83-7.05 240.48-6.1L240.48-6.1Q241.73-4.1 243.33-3.33 244.93-2.55 247.08-2.55L247.08-2.55Q249.48-2.55 251.85-3.78 254.23-5 255.78-6.95L255.78-6.95 256.38-5.9Q253.93-2.75 251.18-1.07 248.43 0.6 244.43 0.6L244.43 0.6Q241.38 0.6 238.98-0.9 236.58-2.4 235.23-4.93 233.88-7.45 233.88-10.4L233.88-10.4Q233.88-14.1 235.88-17.6 237.88-21.1 241.18-23.28 244.48-25.45 248.13-25.45L248.13-25.45ZM245.53-22.3Q243.33-22.3 241.6-20.9 239.88-19.5 238.9-17.3 237.93-15.1 237.93-12.75L237.93-12.75Q237.93-9.65 239.38-7.45L239.38-7.45Q241.48-8.4 243.93-10.33 246.38-12.25 248.08-14.5 249.78-16.75 249.78-18.6L249.78-18.6Q249.78-22.3 245.53-22.3L245.53-22.3ZM279.38-25.45Q281.38-25.45 281.98-23.98 282.58-22.5 282.58-19.9L282.58-19.9 282.58-18.35 282.58-4.2Q282.58-3.65 282.93-3.08 283.28-2.5 283.93-2.5L283.93-2.5Q284.78-2.5 285.38-3.05 285.98-3.6 286.58-4.45L286.58-4.45 287.33-3.7Q286.58-2.1 285.08-0.93 283.58 0.25 282.23 0.25L282.23 0.25Q280.23 0.25 279.13-1 278.03-2.25 278.03-4.8L278.03-4.8 278.03-18.05Q278.03-18.8 277.88-19.3 277.73-19.8 277.13-19.8L277.13-19.8Q275.08-19.8 272.93-15.85 270.78-11.9 269.25-7.03 267.73-2.15 267.73-0.6L267.73-0.6 263.38 0.7 263.38-20.7Q263.38-21.4 263-21.98 262.63-22.55 261.93-22.55L261.93-22.55Q260.73-22.55 259.33-20.4L259.33-20.4 258.58-21.2Q259.23-23 260.73-24.23 262.23-25.45 263.73-25.45L263.73-25.45Q265.83-25.45 266.85-24.45 267.88-23.45 267.88-21.7L267.88-21.7 267.88-8.55 268.08-8.55Q269.43-13 270.68-16.3 271.93-19.6 274.18-22.53 276.43-25.45 279.38-25.45L279.38-25.45Z" opacity="1" transform="matrix(1,0,0,1,0,0)" fill="#ffffff" class="wordmark-text-0" data-fill-palette-color="primary" id="text-0"></path></svg></g></svg></g><g transform="matrix(1,0,0,1,0,47.57342896084656)"><svg viewBox="0 0 192 11.343573313752449" height="11.343573313752449" width="192"><g transform="matrix(1,0,0,1,0,0)"><svg width="192" viewBox="3.097777155567 -37.188888803954995 745.489281665308 43.38454097786804" height="11.343573313752449" data-palette-color="#784eb7"><path d="M19.15 1.6L19.15 1.6Q15.65 1.35 12.83-0.23 10-1.8 7.93-4.35 5.85-6.9 4.63-10.05 3.4-13.2 3.15-16.63 2.9-20.05 3.68-23.4 4.45-26.75 6.4-29.65L6.4-29.65Q6.8-30.25 7.63-31.25 8.45-32.25 9.53-33.25 10.6-34.25 11.78-34.98 12.95-35.7 14.15-35.83 15.35-35.95 16.35-35.15L16.35-35.15Q16.5-35.2 16.7-35.35L16.7-35.35Q17.85-36 18.95-36.45 20.05-36.9 21.43-37.1 22.8-37.3 24.9-37.05L24.9-37.05Q29.45-36.6 32.77-33.75 36.1-30.9 37.8-26.35 39.5-21.8 39.1-16.2L39.1-16.2Q38.8-12.15 37.15-8.78 35.5-5.4 32.77-2.98 30.05-0.55 26.58 0.65 23.1 1.85 19.15 1.6ZM18.8-1.15L18.8-1.15Q22.65-0.75 25.73-1.88 28.8-3 31.03-5.2 33.25-7.4 34.55-10.28 35.85-13.15 36.15-16.2L36.15-16.2Q36.6-21.05 35.25-24.98 33.9-28.9 31.15-31.4 28.4-33.9 24.6-34.35L24.6-34.35Q21.55-34.7 19.13-33.5 16.7-32.3 15.5-30.05 14.3-27.8 14.8-25.05L14.8-25.05Q15.15-23.35 16.43-22.08 17.7-20.8 18.9-20.1L18.9-20.1Q19.15-20 19.43-19.9 19.7-19.8 20.2-19.65L20.2-19.65Q21.1-19.45 22.03-19 22.95-18.55 23.15-17.3L23.15-17.3 23-17.05Q22.15-16.35 21.05-16.43 19.95-16.5 18.93-16.98 17.9-17.45 17.15-17.85L17.15-17.85Q16-18.55 14.88-19.7 13.75-20.85 13.15-21.8L13.15-21.8Q11.9-23.9 11.93-26.6 11.95-29.3 13.2-32.2L13.2-32.2Q10.2-30.75 8.47-28 6.75-25.25 6.23-21.85 5.7-18.45 6.3-14.98 6.9-11.5 8.53-8.5 10.15-5.5 12.75-3.5 15.35-1.5 18.8-1.15ZM45.9 5.5L45.9 5.5Q43.6 6.3 42.15 6.18 40.7 6.05 40.6 4.95L40.6 4.95Q40.45 3.6 44.35 3.15L44.35 3.15Q45.5 2.95 46.45 2.33 47.4 1.7 47.9 0.8L47.9 0.8Q48.8-0.6 49.07-2.78 49.35-4.95 49.27-7.55 49.2-10.15 49.05-12.9L49.05-12.9Q49.05-13.2 49.05-13.35L49.05-13.35Q48.8-17.3 48.77-21.03 48.75-24.75 49.8-27.25L49.8-27.25Q51.4-31.25 54.1-30.05L54.1-30.05Q54.5-29.25 54.4-28.83 54.3-28.4 53.3-27.45L53.3-27.45Q52.9-27.1 52.6-26.78 52.3-26.45 52.3-25.9L52.3-25.9Q52.35-25.1 53.3-24.1 54.25-23.1 55.25-22.1L55.25-22.1Q56.6-20.75 58.45-18.65 60.3-16.55 62.27-14.13 64.25-11.7 66.05-9.43 67.85-7.15 69.05-5.5L69.05-5.5Q68.85-16.55 70.75-23.75 72.65-30.95 76.5-34L76.5-34Q77.55-34.9 78.6-33.85L78.6-33.85Q78.65-33.5 78.65-33.27 78.65-33.05 78.6-32.9L78.6-32.9Q78.55-32.55 78.22-32.18 77.9-31.8 77.15-30.9L77.15-30.9Q75.4-28.8 74.27-25.58 73.15-22.35 72.57-18.45 72-14.55 71.9-10.43 71.8-6.3 72.1-2.4L72.1-2.4Q72.15-2.2 72.17-1.95 72.2-1.7 72.25-1.45L72.25-1.45Q72.5 0.35 72.35 1.1 72.2 1.85 71.4 2.55L71.4 2.55Q70.55 2.4 70.1 2 69.65 1.6 68.9 0.2L68.9 0.2Q68.75-0.05 68.62-0.23 68.5-0.4 68.4-0.6L68.4-0.6Q65.5-5.4 61.32-10.75 57.15-16.1 51.95-21.6L51.95-21.6Q51.4-19.45 51.47-16.75 51.55-14.05 51.75-11.2L51.75-11.2Q51.95-8.5 52-5.88 52.05-3.25 51.6-1 51.15 1.25 49.85 2.85L49.85 2.85Q49.7 3 49.1 3.53 48.5 4.05 47.65 4.6 46.8 5.15 45.9 5.5ZM94.95 1.05L94.95 1.05Q91.85 0.9 89-0.18 86.15-1.25 84.27-3.33 82.4-5.4 82.15-8.45L82.15-8.45Q81.75-13.3 86.5-16.75L86.5-16.75Q86.45-16.8 86.4-16.85 86.35-16.9 86.3-16.95L86.3-16.95Q86.1-17.1 85.9-17.28 85.7-17.45 85.35-17.65L85.35-17.65Q84.2-18.5 83.17-19.58 82.15-20.65 82-22.5L82-22.5Q81.8-24.7 83.07-26.55 84.35-28.4 86.75-29.58 89.15-30.75 92.2-30.85L92.2-30.85Q94.55-30.95 96.97-30.43 99.4-29.9 101.47-28.93 103.55-27.95 104.75-26.65L104.75-26.65Q105.25-26.15 105.7-25.25 106.15-24.35 106.32-23.35 106.5-22.35 106.05-21.6 105.6-20.85 104.3-20.6L104.3-20.6 104.05-20.6Q103.45-21.05 103.32-21.48 103.2-21.9 103.4-22.55L103.4-22.55Q103.55-23.3 103.5-23.6L103.5-23.6Q103.3-24.6 102.15-25.43 101-26.25 99.37-26.88 97.75-27.5 96.02-27.83 94.3-28.15 92.95-28.15L92.95-28.15Q91.25-28.15 89.45-27.58 87.65-27 86.32-26 85-25 84.67-23.68 84.35-22.35 85.6-20.9L85.6-20.9Q86.7-19.65 89-18.82 91.3-18 94.25-17.8L94.25-17.8Q94.6-17.8 94.95-17.82 95.3-17.85 95.65-17.9L95.65-17.9Q97.75-18.25 98.75-17.4L98.75-17.4 98.8-17.2Q98.6-15.65 97.45-15.28 96.3-14.9 93.4-15.3L93.4-15.3Q93.35-15.3 93.3-15.3L93.3-15.3Q92.75-15.4 92.27-15.45 91.8-15.5 91.4-15.45L91.4-15.45Q88.65-15.4 86.82-13.68 85-11.95 84.9-9.45L84.9-9.45Q84.8-6.75 86.22-5 87.65-3.25 90.02-2.43 92.4-1.6 95.1-1.55L95.1-1.55Q98.35-1.5 101.27-2.58 104.2-3.65 105.65-5.5L105.65-5.5Q105.7-5.55 105.8-5.75 105.9-5.95 106.1-6.5L106.1-6.5Q106.75-7.9 107.2-8.45 107.65-9 108.15-9L108.15-9Q109.3-9.05 109.5-8.13 109.7-7.2 108.9-5.55L108.9-5.55Q108.05-3.95 106.95-2.85L106.95-2.85Q105-0.9 101.82 0.13 98.65 1.15 94.95 1.05ZM133.19-0.65L133.19-0.65Q131.49-1.2 130.92-1.63 130.34-2.05 130.59-3.3L130.59-3.3 130.64-3.4Q131.34-4 131.99-4 132.64-4 133.59-3.4L133.59-3.4Q133.79-3.25 134.02-3.15 134.24-3.05 134.44-2.95L134.44-2.95Q137.09-2.2 140.02-2.2 142.94-2.2 145.77-2.93 148.59-3.65 150.97-5 153.34-6.35 154.89-8.33 156.44-10.3 156.74-12.8L156.74-12.8Q157.19-16.35 156.29-19.03 155.39-21.7 153.52-23.53 151.64-25.35 149.07-26.45 146.49-27.55 143.59-27.95L143.59-27.95Q139.24-28.45 135.97-27.73 132.69-27 131.09-25.15L131.09-25.15Q129.84-23.65 130.14-22.25 130.44-20.85 131.92-20.1 133.39-19.35 135.54-19.7L135.54-19.7Q135.79-20.1 135.74-21.5L135.74-21.5Q135.69-22.25 135.84-23.03 135.99-23.8 137.04-23.8L137.04-23.8Q138.04-23.8 138.19-23.05 138.34-22.3 138.29-21.55L138.29-21.55Q138.29-21.5 138.29-21.45L138.29-21.45Q138.29-21.05 138.32-20.6 138.34-20.15 138.39-19.75L138.39-19.75Q138.89-19.55 139.57-19.68 140.24-19.8 141.04-19.95L141.04-19.95Q141.14-20 141.19-20L141.19-20Q141.24-20 141.24-20L141.24-20Q142.34-20.3 143.42-20.35 144.49-20.4 144.74-19.25L144.74-19.25Q144.94-18.4 144.29-18 143.64-17.6 142.62-17.45 141.59-17.3 140.64-17.2L140.64-17.2 140.59-17.2Q139.99-17.15 139.47-17.13 138.94-17.1 138.54-17L138.54-17Q138.34-16.1 138.32-14.98 138.29-13.85 138.29-12.6L138.29-12.6Q138.29-12.4 138.29-12.23 138.29-12.05 138.29-11.85L138.29-11.85Q138.29-10.75 138.32-9.73 138.34-8.7 138.39-8.45L138.39-8.45Q138.49-6.7 138.42-5.78 138.34-4.85 138.02-4.38 137.69-3.9 136.99-3.45L136.99-3.45 136.79-3.45Q135.99-4 135.77-5.13 135.54-6.25 135.64-8.55L135.64-8.55Q135.69-8.95 135.72-10.05 135.74-11.15 135.74-11.95L135.74-11.95Q135.79-13.25 135.77-14.5 135.74-15.75 135.59-16.75L135.59-16.75Q133.99-16.95 132.34-17.3 130.69-17.65 129.39-18.4 128.09-19.15 127.52-20.45 126.94-21.75 127.44-23.8L127.44-23.8Q128.14-26.65 130.84-28.53 133.54-30.4 137.34-30.75L137.34-30.75Q142.04-31.2 146.22-30.25 150.39-29.3 153.54-27.03 156.69-24.75 158.32-21.2 159.94-17.65 159.49-12.9L159.49-12.9Q159.19-9.75 157.39-7.25 155.59-4.75 152.79-3.05 149.99-1.35 146.62-0.45 143.24 0.45 139.77 0.4 136.29 0.35 133.19-0.65ZM178.99 2.75L178.99 2.75Q175.99 2.55 173.51 1.13 171.04-0.3 169.26-2.55 167.49-4.8 166.49-7.55L166.49-7.55Q165.09-11.4 165.51-15.7 165.94-20 168.29-23.5L168.29-23.5Q168.74-24.15 169.69-25.23 170.64-26.3 171.84-27.28 173.04-28.25 174.31-28.63 175.59-29 176.69-28.15L176.69-28.15Q176.74-28.2 176.89-28.25L176.89-28.25Q177.89-28.8 178.76-29.2 179.64-29.6 180.81-29.78 181.99-29.95 183.74-29.75L183.74-29.75Q187.59-29.35 190.39-26.95 193.19-24.55 194.61-20.75 196.04-16.95 195.69-12.25L195.69-12.25Q195.44-8.85 194.06-6 192.69-3.15 190.41-1.13 188.14 0.9 185.21 1.93 182.29 2.95 178.99 2.75ZM178.69 0.05L178.69 0.05Q181.84 0.4 184.36-0.53 186.89-1.45 188.69-3.25 190.49-5.05 191.54-7.38 192.59-9.7 192.79-12.25L192.79-12.25Q193.14-16.25 192.09-19.48 191.04-22.7 188.84-24.7 186.64-26.7 183.49-27.1L183.49-27.1Q181.04-27.4 179.06-26.43 177.09-25.45 176.09-23.65 175.09-21.85 175.54-19.65L175.54-19.65Q175.79-18.55 176.69-17.45 177.59-16.35 178.84-15.65L178.84-15.65Q179.04-15.55 179.09-15.55L179.09-15.55Q179.34-15.5 179.49-15.45 179.64-15.4 179.89-15.3L179.89-15.3Q180.64-15.1 181.46-14.68 182.29-14.25 182.44-13.1L182.44-13.1 182.29-12.8Q180.69-11.4 177.24-13.45L177.24-13.45Q176.39-13.95 175.44-14.88 174.49-15.8 173.84-16.8L173.84-16.8Q172.89-18.45 172.81-20.6 172.74-22.75 173.69-25.1L173.69-25.1Q170.94-23.6 169.61-20.83 168.29-18.05 168.26-14.78 168.24-11.5 169.29-8.45L169.29-8.45Q170.44-5.15 172.81-2.73 175.19-0.3 178.69 0.05ZM235.34 1.9L234.89 2.1Q229.84 0.65 227.81-5.43 225.79-11.5 227.04-21.65L227.04-21.65Q225.54-20.95 224.41-19.7 223.29-18.45 222.24-17.15L222.24-17.15Q219.34-13.5 216.91-9.53 214.49-5.55 212.14-0.55L212.14-0.55Q212.14-0.55 212.14-0.5L212.14-0.5Q211.84 0.25 211.31 1.1 210.79 1.95 209.49 1.75L209.49 1.75 209.24 1.6Q208.79 0.8 208.91 0.03 209.04-0.75 209.69-2.05L209.69-2.05Q209.94-2.45 210.04-2.7 210.14-2.95 210.19-3.2L210.19-3.2Q210.74-4.9 211.34-7.53 211.94-10.15 212.26-13.15 212.59-16.15 212.44-18.98 212.29-21.8 211.39-23.88 210.49-25.95 208.59-26.7L208.59-26.7Q207.04-27.3 205.59-27.08 204.14-26.85 203.09-26.03 202.04-25.2 201.64-23.98 201.24-22.75 201.74-21.3L201.74-21.3Q202.14-19.95 204.24-18.7L204.24-18.7Q206.14-17.7 205.79-16.65L205.79-16.65Q205.44-15.75 204.71-15.7 203.99-15.65 203.11-16.15 202.24-16.65 201.41-17.38 200.59-18.1 199.96-18.78 199.34-19.45 199.19-19.8L199.19-19.8Q198.39-21.7 198.61-23.4 198.84-25.1 199.84-26.45 200.84-27.8 202.29-28.68 203.74-29.55 205.29-29.7L205.29-29.7Q208.14-30 210.06-29.03 211.99-28.05 213.09-26.18 214.19-24.3 214.66-21.83 215.14-19.35 215.14-16.6 215.14-13.85 214.84-11.15L214.84-11.15Q215.09-11.35 215.24-11.63 215.39-11.9 215.59-12.25L215.59-12.25Q215.69-12.5 215.81-12.75 215.94-13 216.09-13.25L216.09-13.25Q218.39-16.95 220.86-19.83 223.34-22.7 225.94-24.55L225.94-24.55Q227.14-25.45 227.76-25.83 228.39-26.2 228.89-26.2 229.39-26.2 230.09-25.95L230.09-25.95 230.19-25.75Q230.24-24.55 230.11-23.15 229.99-21.75 229.79-20.25L229.79-20.25 229.79-20.15Q229.79-20 229.74-19.75L229.74-19.75Q229.54-17.9 229.36-15.98 229.19-14.05 229.34-12L229.34-12Q229.59-8.3 230.66-5.65 231.74-3 233.59-1.8L233.59-1.8Q234.29-3.75 234.81-5.98 235.34-8.2 235.89-10.5L235.89-10.5Q236.64-13.7 237.51-16.93 238.39-20.15 239.54-23.08 240.69-26 242.36-28.38 244.04-30.75 246.36-32.27 248.69-33.8 251.89-34.1L251.89-34.1Q253.19-34.25 254.71-34.08 256.24-33.9 257.61-33.43 258.99-32.95 259.79-32.13 260.59-31.3 260.49-30.05L260.49-30.05 260.14-29.75Q259.14-29.65 258.44-29.93 257.74-30.2 257.09-30.6L257.09-30.6Q255.84-31.3 254.86-31.45 253.89-31.6 252.29-31.45L252.29-31.45Q248.89-31.1 246.59-29 244.29-26.9 242.76-23.68 241.24-20.45 240.24-16.63 239.24-12.8 238.39-8.95L238.39-8.95Q237.69-5.9 236.99-3.1 236.29-0.3 235.34 1.9L235.34 1.9ZM253.88 5.5L253.88 5.5Q251.58 6.3 250.13 6.18 248.68 6.05 248.58 4.95L248.58 4.95Q248.43 3.6 252.33 3.15L252.33 3.15Q253.48 2.95 254.43 2.33 255.38 1.7 255.88 0.8L255.88 0.8Q256.78-0.6 257.06-2.78 257.33-4.95 257.26-7.55 257.18-10.15 257.03-12.9L257.03-12.9Q257.03-13.2 257.03-13.35L257.03-13.35Q256.78-17.3 256.76-21.03 256.73-24.75 257.78-27.25L257.78-27.25Q259.38-31.25 262.08-30.05L262.08-30.05Q262.48-29.25 262.38-28.83 262.28-28.4 261.28-27.45L261.28-27.45Q260.88-27.1 260.58-26.78 260.28-26.45 260.28-25.9L260.28-25.9Q260.33-25.1 261.28-24.1 262.23-23.1 263.23-22.1L263.23-22.1Q264.58-20.75 266.43-18.65 268.28-16.55 270.26-14.13 272.23-11.7 274.03-9.43 275.83-7.15 277.03-5.5L277.03-5.5Q276.83-16.55 278.73-23.75 280.63-30.95 284.48-34L284.48-34Q285.53-34.9 286.58-33.85L286.58-33.85Q286.63-33.5 286.63-33.27 286.63-33.05 286.58-32.9L286.58-32.9Q286.53-32.55 286.21-32.18 285.88-31.8 285.13-30.9L285.13-30.9Q283.38-28.8 282.26-25.58 281.13-22.35 280.56-18.45 279.98-14.55 279.88-10.43 279.78-6.3 280.08-2.4L280.08-2.4Q280.13-2.2 280.16-1.95 280.18-1.7 280.23-1.45L280.23-1.45Q280.48 0.35 280.33 1.1 280.18 1.85 279.38 2.55L279.38 2.55Q278.53 2.4 278.08 2 277.63 1.6 276.88 0.2L276.88 0.2Q276.73-0.05 276.61-0.23 276.48-0.4 276.38-0.6L276.38-0.6Q273.48-5.4 269.31-10.75 265.13-16.1 259.93-21.6L259.93-21.6Q259.38-19.45 259.46-16.75 259.53-14.05 259.73-11.2L259.73-11.2Q259.93-8.5 259.98-5.88 260.03-3.25 259.58-1 259.13 1.25 257.83 2.85L257.83 2.85Q257.68 3 257.08 3.53 256.48 4.05 255.63 4.6 254.78 5.15 253.88 5.5ZM311.33 1.4L311.33 1.4Q309.43 1.25 307.85 0.23 306.28-0.8 305.98-2.15L305.98-2.15Q305.53-4.35 306.53-5.73 307.53-7.1 309.28-6.6L309.28-6.6 309.38-6.45Q309.73-5.4 309.13-4.35L309.13-4.35Q308.68-3.65 308.73-3.1L308.73-3.1Q308.83-2.4 309.58-1.9 310.33-1.4 311.43-1.3L311.43-1.3Q313.83-1.1 315.43-2.33 317.03-3.55 318.03-5.6 319.03-7.65 319.58-10.05 320.13-12.45 320.43-14.6L320.43-14.6Q319.63-14.9 318.68-14.88 317.73-14.85 316.78-14.75L316.78-14.75Q316.63-14.7 316.53-14.7L316.53-14.7Q315.43-14.6 314.28-14.58 313.13-14.55 312.03-14.9L312.03-14.9Q311.13-15.3 310.6-16.13 310.08-16.95 309.98-17.8 309.88-18.65 310.28-19.2 310.68-19.75 311.58-19.65L311.58-19.65Q312.43-19.6 312.58-19.13 312.73-18.65 312.78-18.3L312.78-18.3Q312.78-17.8 312.93-17.55L312.93-17.55Q313.78-17.45 314.73-17.45 315.68-17.45 316.68-17.45L316.68-17.45Q316.93-17.45 317.18-17.45 317.43-17.45 317.68-17.45L317.68-17.45 321.03-17.45Q322.18-19.85 323.43-22.38 324.68-24.9 326.43-26.7L326.43-26.7Q326.13-26.7 325.45-26.73 324.78-26.75 324.1-26.8 323.43-26.85 323.18-26.85L323.18-26.85Q320.68-27 317.68-27.13 314.68-27.25 311.8-27.25 308.93-27.25 306.88-27L306.88-27Q305.53-26.8 304.6-26.25 303.68-25.7 303.73-25.1L303.73-25.1Q303.83-24.1 305.28-24.2L305.28-24.2Q305.43-24.2 305.68-24.2L305.68-24.2Q306.58-24.2 307.03-24.1 307.48-24 307.78-23.45L307.78-23.45 307.78-23.3Q307.58-22.2 306.65-21.88 305.73-21.55 304.7-21.68 303.68-21.8 303.13-21.95L303.13-21.95Q301.73-22.55 301.28-23.85 300.83-25.15 301.35-26.53 301.88-27.9 303.28-28.65L303.28-28.65Q304.53-29.4 306.73-29.65 308.93-29.9 311.6-29.85 314.28-29.8 316.88-29.7L316.88-29.7 317.13-29.7Q318.48-29.65 320.28-29.63 322.08-29.6 324-29.58 325.93-29.55 327.68-29.58 329.43-29.6 330.63-29.65L330.63-29.65Q330.68-29.65 330.78-29.65L330.78-29.65Q331.83-29.7 332.93-29.65 334.03-29.6 334.83-29.33 335.63-29.05 335.68-28.3L335.68-28.3Q335.73-27.3 335.13-27.18 334.53-27.05 333.83-27.1L333.83-27.1Q333.68-27.1 333.63-27.1L333.63-27.1 333.28-27.1Q332.93-27.1 332.6-27.1 332.28-27.1 331.93-27L331.93-27Q329.98-26.65 328.43-25.1 326.88-23.55 325.78-21.5 324.68-19.45 324.03-17.5L324.03-17.5Q324.33-17.3 326.18-17.45L326.18-17.45Q326.98-17.55 327.85-17.53 328.73-17.5 329.3-17.2 329.88-16.9 329.83-16.05L329.83-16.05Q329.78-15.25 329.18-14.95 328.58-14.65 327.73-14.65 326.88-14.65 326.08-14.75L326.08-14.75 326.08-14.75Q326.03-14.75 325.88-14.75L325.88-14.75Q325.08-14.85 324.45-14.88 323.83-14.9 323.38-14.7L323.38-14.7Q323.23-14.15 323.1-13.58 322.98-13 322.88-12.35L322.88-12.35Q322.33-10 321.65-7.5 320.98-5 319.78-2.9 318.58-0.8 316.55 0.4 314.53 1.6 311.33 1.4ZM348.53 0.4L348.53 0.4Q346.93 1.6 345.25 1.65 343.58 1.7 342.08 0.9 340.58 0.1 339.43-1.15 338.28-2.4 337.73-3.8L337.73-3.8Q336.98-5.55 336.88-6.73 336.78-7.9 337.48-8.6L337.48-8.6 337.58-8.7Q338.73-8.65 339.2-8.15 339.68-7.65 340.03-6.05L340.03-6.05Q340.13-5.7 340.2-5.4 340.28-5.1 340.38-4.85L340.38-4.85Q340.83-3.8 341.65-2.85 342.48-1.9 343.5-1.38 344.53-0.85 345.58-1.03 346.63-1.2 347.48-2.4L347.48-2.4Q346.08-3.7 345.03-5.9 343.98-8.1 343.35-10.85 342.73-13.6 342.58-16.55 342.43-19.5 342.8-22.3 343.18-25.1 344.18-27.4 345.18-29.7 346.78-31.1L346.78-31.1Q348.18-32.35 349.38-32.35 350.58-32.35 351.53-31.5 352.48-30.65 353.18-29.28 353.88-27.9 354.28-26.33 354.68-24.75 354.78-23.35L354.78-23.35Q355.03-20.05 354.73-16.45 354.43-12.85 353.63-9.47 352.83-6.1 351.55-3.5 350.28-0.9 348.53 0.4ZM348.93-4.9L348.93-4.9Q350.18-7 350.95-9.93 351.73-12.85 352.05-16.28 352.38-19.7 352.13-23.15L352.13-23.15Q352.08-23.8 351.85-24.95 351.63-26.1 351.25-27.25 350.88-28.4 350.38-29.05 349.88-29.7 349.23-29.3L349.23-29.3Q347.48-28.25 346.53-25.93 345.58-23.6 345.3-20.6 345.03-17.6 345.4-14.55 345.78-11.5 346.68-8.93 347.58-6.35 348.93-4.9ZM379.32 2.95L379.32 2.95Q378.52 2.95 377.8 1.93 377.07 0.9 376.17-1.4L376.17-1.4Q374.17-5.45 373.15-9.47 372.12-13.5 371.47-17.9L371.47-17.9Q371.12-20.85 370.55-22.95 369.97-25.05 368.02-26L368.02-26Q366.02-27 364.27-26.5 362.52-26 361.52-24.8L361.52-24.8Q360.42-23.45 360.57-21.65 360.72-19.85 362.87-18.5L362.87-18.5Q364.02-17.85 364.37-17.38 364.72-16.9 364.82-16.15L364.82-16.15Q364.52-15.15 363.47-15.2 362.42-15.25 360.92-16.3L360.92-16.3Q359.07-17.6 358.32-19.3 357.57-21 357.85-22.8 358.12-24.6 359.17-26.05L359.17-26.05Q360.32-27.65 362.25-28.58 364.17-29.5 366.67-29.2L366.67-29.2Q369.02-28.95 370.4-27.88 371.77-26.8 372.52-25.15 373.27-23.5 373.65-21.48 374.02-19.45 374.32-17.3L374.32-17.3Q375.02-12.95 375.37-11.45L375.37-11.45Q376.17-8.35 377.22-5.75 378.27-3.15 379.37-1.25L379.37-1.25Q380.82-2.95 382.4-5.23 383.97-7.5 385.52-9.98 387.07-12.45 388.42-14.65L388.42-14.65Q388.62-14.95 388.8-15.23 388.97-15.5 389.17-15.75L389.17-15.75Q389.97-17.05 390.45-17.85 390.92-18.65 391.07-19.38 391.22-20.1 391.12-21.1L391.12-21.1Q390.82-22.85 389.9-23.98 388.97-25.1 387.67-25.9L387.67-25.9Q386.67-26.55 386.22-26.93 385.77-27.3 385.65-27.7 385.52-28.1 385.42-28.7L385.42-28.7Q386.12-29.25 387.92-28.9 389.72-28.55 391.62-26.5L391.62-26.5Q393.47-24.6 393.9-22.15 394.32-19.7 393.27-17.25L393.27-17.25Q392.92-16.45 392.27-15.43 391.62-14.4 391-13.5 390.37-12.6 390.07-12L390.07-12Q388.32-9.25 386.8-6.88 385.27-4.5 383.42-1.8L383.42-1.8Q381.57 0.95 380.77 1.95 379.97 2.95 379.32 2.95ZM412.67 1.05L412.67 1.05Q409.57 0.9 406.72-0.18 403.87-1.25 402-3.33 400.12-5.4 399.87-8.45L399.87-8.45Q399.47-13.3 404.22-16.75L404.22-16.75Q404.17-16.8 404.12-16.85 404.07-16.9 404.02-16.95L404.02-16.95Q403.82-17.1 403.62-17.28 403.42-17.45 403.07-17.65L403.07-17.65Q401.92-18.5 400.89-19.58 399.87-20.65 399.72-22.5L399.72-22.5Q399.52-24.7 400.8-26.55 402.07-28.4 404.47-29.58 406.87-30.75 409.92-30.85L409.92-30.85Q412.27-30.95 414.69-30.43 417.12-29.9 419.19-28.93 421.27-27.95 422.47-26.65L422.47-26.65Q422.97-26.15 423.42-25.25 423.87-24.35 424.05-23.35 424.22-22.35 423.77-21.6 423.32-20.85 422.02-20.6L422.02-20.6 421.77-20.6Q421.17-21.05 421.05-21.48 420.92-21.9 421.12-22.55L421.12-22.55Q421.27-23.3 421.22-23.6L421.22-23.6Q421.02-24.6 419.87-25.43 418.72-26.25 417.1-26.88 415.47-27.5 413.75-27.83 412.02-28.15 410.67-28.15L410.67-28.15Q408.97-28.15 407.17-27.58 405.37-27 404.05-26 402.72-25 402.39-23.68 402.07-22.35 403.32-20.9L403.32-20.9Q404.42-19.65 406.72-18.82 409.02-18 411.97-17.8L411.97-17.8Q412.32-17.8 412.67-17.82 413.02-17.85 413.37-17.9L413.37-17.9Q415.47-18.25 416.47-17.4L416.47-17.4 416.52-17.2Q416.32-15.65 415.17-15.28 414.02-14.9 411.12-15.3L411.12-15.3Q411.07-15.3 411.02-15.3L411.02-15.3Q410.47-15.4 410-15.45 409.52-15.5 409.12-15.45L409.12-15.45Q406.37-15.4 404.55-13.68 402.72-11.95 402.62-9.45L402.62-9.45Q402.52-6.75 403.94-5 405.37-3.25 407.75-2.43 410.12-1.6 412.82-1.55L412.82-1.55Q416.07-1.5 419-2.58 421.92-3.65 423.37-5.5L423.37-5.5Q423.42-5.55 423.52-5.75 423.62-5.95 423.82-6.5L423.82-6.5Q424.47-7.9 424.92-8.45 425.37-9 425.87-9L425.87-9Q427.02-9.05 427.22-8.13 427.42-7.2 426.62-5.55L426.62-5.55Q425.77-3.95 424.67-2.85L424.67-2.85Q422.72-0.9 419.55 0.13 416.37 1.15 412.67 1.05ZM457.26 2.2L457.26 2.2Q454.81 2.1 452.64 0.93 450.47-0.25 449.12-2.53 447.76-4.8 447.72-8.2L447.72-8.2Q447.72-10.05 447.99-12 448.26-13.95 448.62-15.8L448.62-15.8Q448.62-15.85 448.67-16L448.67-16Q449.01-18.15 449.26-20.2 449.51-22.25 449.26-24L449.26-24Q449.06-25.55 448.51-26.03 447.97-26.5 446.81-26.35L446.81-26.35Q446.81-26.35 446.76-26.35L446.76-26.35Q446.31-26.3 445.76-26.35 445.22-26.4 444.97-26.9L444.97-26.9Q444.51-27.35 444.72-28.03 444.92-28.7 445.51-28.75L445.51-28.75Q447.06-29.35 448.49-29.03 449.92-28.7 450.92-27.6 451.92-26.5 452.17-24.85L452.17-24.85Q452.47-22.95 452.17-20.68 451.87-18.4 451.47-16.05L451.47-16.05 451.47-15.95Q451.47-15.9 451.42-15.8L451.42-15.8Q451.06-13.4 450.79-11.05 450.51-8.7 450.74-6.63 450.97-4.55 452.06-3L452.06-3Q453.22-1.4 454.94-0.83 456.67-0.25 458.56-0.5 460.47-0.75 462.22-1.7 463.97-2.65 465.17-4.05L465.17-4.05Q466.26-5.4 467.37-7.45 468.47-9.5 468.72-11.35L468.72-11.35Q468.81-11.85 468.81-12.48 468.81-13.1 468.76-13.75L468.76-13.75 468.76-13.8Q468.72-14.25 468.72-14.73 468.72-15.2 468.72-15.65L468.72-15.65Q468.76-16.5 468.84-17.4 468.92-18.3 468.97-19.25L468.97-19.25Q469.06-19.95 469.09-20.65 469.12-21.35 469.17-22L469.17-22Q469.22-22.35 469.22-22.7 469.22-23.05 469.26-23.4L469.26-23.4Q469.26-23.45 469.26-23.7L469.26-23.7Q469.22-24.2 469.22-25.1 469.22-26 469.37-26.95 469.51-27.9 469.94-28.5 470.37-29.1 471.22-28.9L471.22-28.9Q472.12-28.7 472.22-26.78 472.31-24.85 472.01-20.7L472.01-20.7Q471.97-20.35 471.97-20.08 471.97-19.8 471.97-19.5L471.97-19.5Q471.92-18.7 471.87-17.93 471.81-17.15 471.72-16.5L471.72-16.5Q471.67-15.4 471.59-14.43 471.51-13.45 471.51-12.6L471.51-12.6Q471.51-9.95 471.69-7.3 471.87-4.65 472.42-2.78 472.97-0.9 474.12-0.45L474.12-0.45Q474.22-0.4 474.37-0.38 474.51-0.35 474.81-0.3L474.81-0.3 475.12-0.3Q475.72-0.3 476.47-0.13 477.22 0.05 477.26 0.95L477.26 0.95Q477.26 1.9 476.56 2.18 475.87 2.45 474.87 2.3 473.87 2.15 472.99 1.83 472.12 1.5 471.81 1.25L471.81 1.25Q470.67 0.4 470.06-1.33 469.47-3.05 469.01-4.75L469.01-4.75Q468.56-4.4 468.24-3.93 467.92-3.45 467.62-3L467.62-3Q466.87-1.9 466.47-1.45L466.47-1.45Q464.56 0.45 462.14 1.38 459.72 2.3 457.26 2.2ZM492.51 3.7L492.51 3.7Q491.61 3.65 491.24 2.25 490.86 0.85 491.21-2.4L491.21-2.4Q491.36-3.7 491.36-5.35 491.36-7 491.31-8.15L491.31-8.15Q491.31-8.4 491.31-8.65 491.31-8.9 491.31-9.05L491.31-9.05Q491.31-9.45 491.31-9.83 491.31-10.2 491.31-10.6L491.31-10.6Q491.36-14.65 491.34-18.73 491.31-22.8 491.06-26.3L491.06-26.3Q489.31-25.9 487.49-24.88 485.66-23.85 484.46-22.38 483.26-20.9 483.46-19.1L483.46-19.1Q483.51-18.2 484.41-17.65L484.41-17.65Q486.41-16.2 485.61-15.2L485.61-15.2 485.61-15.15Q484.61-14.45 483.51-14.93 482.41-15.4 481.64-16.43 480.86-17.45 480.71-18.25L480.71-18.25Q480.41-20.1 481.04-21.63 481.66-23.15 482.79-24.33 483.91-25.5 484.91-26.3L484.91-26.3Q487.16-28.1 490.64-29 494.11-29.9 497.96-29.7L497.96-29.7Q500.71-29.6 503.31-28.88 505.91-28.15 508.01-26.78 510.11-25.4 511.39-23.4 512.66-21.4 512.71-18.7L512.71-18.7Q512.81-15.75 511.34-13.23 509.86-10.7 507.34-9.18 504.81-7.65 501.76-7.6L501.76-7.6Q496.96-7.6 496.11-10.75L496.11-10.75 496.26-11.05Q497.16-11.7 497.91-11.48 498.66-11.25 499.31-10.85L499.31-10.85 499.31-10.85Q499.66-10.65 500.06-10.5 500.46-10.35 500.81-10.3L500.81-10.3Q503.11-10.05 505.04-10.93 506.96-11.8 508.24-13.45 509.51-15.1 509.86-17.15 510.21-19.2 509.31-21.25L509.31-21.25Q506.56-27.65 494.26-26.95L494.26-26.95Q494.11-23.55 494.09-19.83 494.06-16.1 494.06-12.25L494.06-12.25Q494.06-11.65 494.06-11 494.06-10.35 494.06-9.7L494.06-9.7Q494.11-8.5 494.14-6.98 494.16-5.45 494.19-4.17 494.21-2.9 494.26-2.35L494.26-2.35Q494.41 1 493.96 2.38 493.51 3.75 492.51 3.7ZM531.31 2.7L531.31 2.7Q527.36 3 524.26 1.85 521.16 0.7 519.48-1.5 517.81-3.7 518.11-6.55L518.11-6.55Q518.21-7.4 518.68-8.43 519.16-9.45 519.96-10.3 520.76-11.15 521.86-11.5 522.96-11.85 524.31-11.3L524.31-11.3Q524.61-10.2 524.28-9.7 523.96-9.2 522.41-8.6L522.41-8.6Q521.56-8.25 521.31-7.8L521.31-7.8Q520.71-6.85 520.96-5.35 521.21-3.85 522.06-2.7L522.06-2.7Q523.21-1.3 525.16-0.65 527.11 0 529.36 0 531.61 0 533.76-0.6 535.91-1.2 537.53-2.35 539.16-3.5 539.76-5.1L539.76-5.1Q540.56-7.15 539.91-8.97 539.26-10.8 537.26-11.95L537.26-11.95Q535.86-12.8 533.91-13.3 531.96-13.8 529.91-14.25L529.91-14.25Q527.61-14.8 525.36-15.45 523.11-16.1 521.46-17.2 519.81-18.3 519.26-20.15L519.26-20.15Q518.56-22.7 519.71-24.88 520.86-27.05 523.61-28.4L523.61-28.4Q525.86-29.5 528.43-29.8 531.01-30.1 533.41-29.65 535.81-29.2 537.41-28L537.41-28Q538.56-27.2 539.43-25.9 540.31-24.6 540.31-23.75L540.31-23.75Q540.26-23.1 539.83-22.53 539.41-21.95 538.96-21.45L538.96-21.45Q538.36-20.85 537.91-20.2L537.91-20.2Q537.06-19 536.56-18.93 536.06-18.85 535.26-19.2L535.26-19.2Q534.81-20.1 535.03-20.8 535.26-21.5 536.26-22.4L536.26-22.4Q536.71-22.8 536.98-23.15 537.26-23.5 537.26-23.95L537.26-23.95Q537.26-24.8 536.23-25.55 535.21-26.3 533.61-26.78 532.01-27.25 530.21-27.25L530.21-27.25Q528.71-27.25 527.11-26.88 525.51-26.5 524.21-25.78 522.91-25.05 522.23-23.9 521.56-22.75 521.86-21.15L521.86-21.15Q522.01-20.25 522.93-19.58 523.86-18.9 525.18-18.43 526.51-17.95 527.93-17.57 529.36-17.2 530.51-16.9L530.51-16.9Q532.41-16.4 534.58-15.7 536.76-15 538.68-13.95 540.61-12.9 541.86-11.35L541.86-11.35Q544.31-8.2 542.16-3.6L542.16-3.6Q541.36-1.95 539.68-0.58 538.01 0.8 535.83 1.65 533.66 2.5 531.31 2.7ZM571.35 2.45L571.35 2.45Q569.35 2.3 567.85 1.3 566.35 0.3 565.55-1.2 564.75-2.7 564.75-4.45 564.75-6.2 565.75-7.85L565.75-7.85Q565.8-7.9 565.85-8L565.85-8Q566.1-8.4 566.65-9.05 567.2-9.7 567.9-10 568.6-10.3 569.35-9.6L569.35-9.6Q569.85-9.15 569.63-8.5 569.4-7.85 568.45-6.55L568.45-6.55Q567.5-5.3 567.45-4.85L567.45-4.85Q567.15-2.6 568.88-1.25 570.6 0.1 573.4-0.25L573.4-0.25Q575.1-0.45 576.73-1.48 578.35-2.5 579.3-3.95L579.3-3.95Q580.7-6.1 581-9.08 581.3-12.05 581.4-15.4L581.4-15.4Q581.45-18.05 581.63-20.83 581.8-23.6 582.55-26.2L582.55-26.2Q582.05-26.2 581.58-26.23 581.1-26.25 580.55-26.3L580.55-26.3Q580.05-26.35 579.55-26.38 579.05-26.4 578.5-26.4L578.5-26.4Q578.4-26.4 578.2-26.4L578.2-26.4Q575.55-26.6 572.78-26.68 570-26.75 567.68-26.43 565.35-26.1 564.03-25.08 562.7-24.05 562.9-22.05L562.9-22.05Q563.1-20.4 564.93-19.33 566.75-18.25 569.2-18.4L569.2-18.4Q569.8-18.45 570.35-18.63 570.9-18.8 571.4-19L571.4-19Q572.65-19.45 573.35-19.48 574.05-19.5 574.55-19.1L574.55-19.1 574.6-18.95Q574.65-17.65 573.75-16.98 572.85-16.3 571.7-16.05 570.55-15.8 569.8-15.7L569.8-15.7Q567.95-15.55 566.08-16.07 564.2-16.6 562.75-17.6 561.3-18.6 560.7-19.85L560.7-19.85Q559.65-22 560-23.68 560.35-25.35 561.63-26.55 562.9-27.75 564.7-28.4 566.5-29.05 568.35-29.2L568.35-29.2Q571.55-29.45 575.48-29.48 579.4-29.5 583.53-29.43 587.65-29.35 591.5-29.25L591.5-29.25Q592.15-29.25 592.8-29.23 593.45-29.2 594.1-29.2L594.1-29.2Q594.2-29.2 594.45-29.2L594.45-29.2Q595.35-29.2 596.28-29.05 597.2-28.9 597.25-27.95L597.25-27.95Q597.45-26.2 592.95-26.5L592.95-26.5Q592.8-26.55 592.2-26.55 591.6-26.55 590.93-26.58 590.25-26.6 589.85-26.6L589.85-26.6Q588.8-26.7 587.9-26.7 587-26.7 586.45-26.55L586.45-26.55Q585.55-26.35 585.1-25.3 584.65-24.25 584.48-22.9 584.3-21.55 584.2-20.35L584.2-20.35Q584.15-19.55 584.15-18.75 584.15-17.95 584.1-17.15L584.1-17.15Q584.1-16.75 584.08-16.35 584.05-15.95 584.05-15.55L584.05-15.55Q583.95-11.85 583.63-8.5 583.3-5.15 581.65-2.5L581.65-2.5Q580.85-1.25 579.38-0.03 577.9 1.2 575.9 1.93 573.9 2.65 571.35 2.45ZM612.15 2.75L612.15 2.75Q609.15 2.55 606.68 1.13 604.2-0.3 602.43-2.55 600.65-4.8 599.65-7.55L599.65-7.55Q598.25-11.4 598.68-15.7 599.1-20 601.45-23.5L601.45-23.5Q601.9-24.15 602.85-25.23 603.8-26.3 605-27.28 606.2-28.25 607.48-28.63 608.75-29 609.85-28.15L609.85-28.15Q609.9-28.2 610.05-28.25L610.05-28.25Q611.05-28.8 611.93-29.2 612.8-29.6 613.98-29.78 615.15-29.95 616.9-29.75L616.9-29.75Q620.75-29.35 623.55-26.95 626.35-24.55 627.78-20.75 629.2-16.95 628.85-12.25L628.85-12.25Q628.6-8.85 627.23-6 625.85-3.15 623.58-1.13 621.3 0.9 618.38 1.93 615.45 2.95 612.15 2.75ZM611.85 0.05L611.85 0.05Q615 0.4 617.53-0.53 620.05-1.45 621.85-3.25 623.65-5.05 624.7-7.38 625.75-9.7 625.95-12.25L625.95-12.25Q626.3-16.25 625.25-19.48 624.2-22.7 622-24.7 619.8-26.7 616.65-27.1L616.65-27.1Q614.2-27.4 612.23-26.43 610.25-25.45 609.25-23.65 608.25-21.85 608.7-19.65L608.7-19.65Q608.95-18.55 609.85-17.45 610.75-16.35 612-15.65L612-15.65Q612.2-15.55 612.25-15.55L612.25-15.55Q612.5-15.5 612.65-15.45 612.8-15.4 613.05-15.3L613.05-15.3Q613.8-15.1 614.63-14.68 615.45-14.25 615.6-13.1L615.6-13.1 615.45-12.8Q613.85-11.4 610.4-13.45L610.4-13.45Q609.55-13.95 608.6-14.88 607.65-15.8 607-16.8L607-16.8Q606.05-18.45 605.98-20.6 605.9-22.75 606.85-25.1L606.85-25.1Q604.1-23.6 602.78-20.83 601.45-18.05 601.43-14.78 601.4-11.5 602.45-8.45L602.45-8.45Q603.6-5.15 605.98-2.73 608.35-0.3 611.85 0.05ZM656.6 1.4L656.6 1.4Q654.7 1.25 653.12 0.23 651.55-0.8 651.25-2.15L651.25-2.15Q650.8-4.35 651.8-5.73 652.8-7.1 654.55-6.6L654.55-6.6 654.65-6.45Q655-5.4 654.4-4.35L654.4-4.35Q653.95-3.65 654-3.1L654-3.1Q654.1-2.4 654.85-1.9 655.6-1.4 656.7-1.3L656.7-1.3Q659.1-1.1 660.7-2.33 662.3-3.55 663.3-5.6 664.3-7.65 664.85-10.05 665.4-12.45 665.7-14.6L665.7-14.6Q664.9-14.9 663.95-14.88 663-14.85 662.05-14.75L662.05-14.75Q661.9-14.7 661.8-14.7L661.8-14.7Q660.7-14.6 659.55-14.58 658.4-14.55 657.3-14.9L657.3-14.9Q656.4-15.3 655.87-16.13 655.35-16.95 655.25-17.8 655.15-18.65 655.55-19.2 655.95-19.75 656.85-19.65L656.85-19.65Q657.7-19.6 657.85-19.13 658-18.65 658.05-18.3L658.05-18.3Q658.05-17.8 658.2-17.55L658.2-17.55Q659.05-17.45 660-17.45 660.95-17.45 661.95-17.45L661.95-17.45Q662.2-17.45 662.45-17.45 662.7-17.45 662.95-17.45L662.95-17.45 666.3-17.45Q667.45-19.85 668.7-22.38 669.95-24.9 671.7-26.7L671.7-26.7Q671.4-26.7 670.72-26.73 670.05-26.75 669.37-26.8 668.7-26.85 668.45-26.85L668.45-26.85Q665.95-27 662.95-27.13 659.95-27.25 657.07-27.25 654.2-27.25 652.15-27L652.15-27Q650.8-26.8 649.87-26.25 648.95-25.7 649-25.1L649-25.1Q649.1-24.1 650.55-24.2L650.55-24.2Q650.7-24.2 650.95-24.2L650.95-24.2Q651.85-24.2 652.3-24.1 652.75-24 653.05-23.45L653.05-23.45 653.05-23.3Q652.85-22.2 651.92-21.88 651-21.55 649.97-21.68 648.95-21.8 648.4-21.95L648.4-21.95Q647-22.55 646.55-23.85 646.1-25.15 646.62-26.53 647.15-27.9 648.55-28.65L648.55-28.65Q649.8-29.4 652-29.65 654.2-29.9 656.87-29.85 659.55-29.8 662.15-29.7L662.15-29.7 662.4-29.7Q663.75-29.65 665.55-29.63 667.35-29.6 669.27-29.58 671.2-29.55 672.95-29.58 674.7-29.6 675.9-29.65L675.9-29.65Q675.95-29.65 676.05-29.65L676.05-29.65Q677.1-29.7 678.2-29.65 679.3-29.6 680.1-29.33 680.9-29.05 680.95-28.3L680.95-28.3Q681-27.3 680.4-27.18 679.8-27.05 679.1-27.1L679.1-27.1Q678.95-27.1 678.9-27.1L678.9-27.1 678.55-27.1Q678.2-27.1 677.87-27.1 677.55-27.1 677.2-27L677.2-27Q675.25-26.65 673.7-25.1 672.15-23.55 671.05-21.5 669.95-19.45 669.3-17.5L669.3-17.5Q669.6-17.3 671.45-17.45L671.45-17.45Q672.25-17.55 673.12-17.53 674-17.5 674.57-17.2 675.15-16.9 675.1-16.05L675.1-16.05Q675.05-15.25 674.45-14.95 673.85-14.65 673-14.65 672.15-14.65 671.35-14.75L671.35-14.75 671.35-14.75Q671.3-14.75 671.15-14.75L671.15-14.75Q670.35-14.85 669.72-14.88 669.1-14.9 668.65-14.7L668.65-14.7Q668.5-14.15 668.37-13.58 668.25-13 668.15-12.35L668.15-12.35Q667.6-10 666.92-7.5 666.25-5 665.05-2.9 663.85-0.8 661.82 0.4 659.8 1.6 656.6 1.4ZM699.59 0.85L699.59 0.85Q697.79 0.75 695.67 0.73 693.54 0.7 691.64 0.7L691.64 0.7 690.99 0.7Q690.24 0.65 688.94 0.65 687.64 0.65 686.19 0.65 684.74 0.65 683.54 0.7L683.54 0.7Q682.74 0.75 681.82 0.6 680.89 0.45 680.89-0.5L680.89-0.5Q680.89-1.2 681.79-1.5 682.69-1.8 684.69-2L684.69-2Q685.84-2.15 686.32-2.23 686.79-2.3 687.09-2.45L687.09-2.45Q688.59-3.25 689.44-5.18 690.29-7.1 690.79-9.73 691.29-12.35 691.69-15.2L691.69-15.2Q692.09-18.05 692.57-20.85 693.04-23.65 693.99-25.95 694.94-28.25 696.64-29.5L696.64-29.5Q697.84-30.4 699.49-30.58 701.14-30.75 702.74-30.2 704.34-29.65 705.44-28.38 706.54-27.1 706.64-25.1L706.64-25.1Q706.79-22.8 705.84-21.05 704.89-19.3 703.44-18.07 701.99-16.85 700.54-16L700.54-16Q698.54-14.75 697.72-14.58 696.89-14.4 695.99-15.05L695.99-15.05 695.94-15.2Q695.79-16.8 698.19-17.75L698.19-17.75Q698.44-17.85 698.64-17.9 698.84-17.95 699.04-18.05L699.04-18.05Q701.49-19.55 702.74-21.33 703.99-23.1 703.89-24.95L703.89-24.95Q703.84-26.45 703.04-27.18 702.24-27.9 701.09-27.95 699.94-28 698.84-27.45 697.74-26.9 697.14-25.85L697.14-25.85Q695.99-23.95 695.42-21 694.84-18.05 694.44-14.8L694.44-14.8Q694.09-12.05 693.59-9.4 693.09-6.75 692.24-4.55L692.24-4.55Q691.94-4 691.54-3.4L691.54-3.4Q691.34-3.05 691.14-2.75 690.94-2.45 690.84-2.15L690.84-2.15Q693.14-2 695.84-1.83 698.54-1.65 701.27-1.63 703.99-1.6 706.34-1.8L706.34-1.8Q710.19-2 710.64-4.75L710.64-4.75Q710.99-6.85 711.89-7.05L711.89-7.05Q712.94-7.25 713.27-6.63 713.59-6 713.47-5.03 713.34-4.05 713.04-3.18 712.74-2.3 712.49-2L712.49-2Q711.39-0.4 709.44 0.23 707.49 0.85 704.97 0.9 702.44 0.95 699.59 0.85ZM735.49 5.25L735.49 5.25Q730.99 5.25 729.14 1.4L729.14 1.4Q728.94 0.95 728.92 0.08 728.89-0.8 729.12-1.7 729.34-2.6 729.84-3.15 730.34-3.7 731.24-3.5L731.24-3.5Q732.09-3.3 732.12-2.58 732.14-1.85 731.99-1.15L731.99-1.15Q731.99-1.05 731.94-0.9L731.94-0.9Q731.89-0.5 731.84-0.13 731.79 0.25 731.89 0.55L731.89 0.55Q732.19 1.85 733.29 2.4 734.39 2.95 735.79 2.8 737.19 2.65 738.44 1.85 739.69 1.05 740.24-0.3L740.24-0.3Q740.89-1.55 741.19-3.25 741.49-4.95 741.69-6.75L741.69-6.75Q741.79-7.75 741.89-8.72 741.99-9.7 742.19-10.6L742.19-10.6Q741.84-10.4 741.39-10.05 740.94-9.7 740.54-9.3L740.54-9.3Q740.19-9 739.89-8.72 739.59-8.45 739.34-8.3L739.34-8.3Q737.64-7.25 735.67-6.78 733.69-6.3 731.77-6.48 729.84-6.65 728.32-7.58 726.79-8.5 725.94-10.25 725.09-12 725.29-14.65L725.29-14.65Q725.39-15.9 725.69-17.18 725.99-18.45 726.34-19.7L726.34-19.7Q726.54-20.35 726.72-21 726.89-21.65 727.04-22.4L727.04-22.4Q727.09-22.6 727.14-22.8 727.19-23 727.24-23.25L727.24-23.25Q727.69-24.95 727.99-26.8 728.29-28.65 727.54-29.8L727.54-29.8Q726.89-30.8 725.64-30.98 724.39-31.15 722.79-30.6L722.79-30.6Q721.49-30.15 720.44-28.8 719.39-27.45 718.92-25.8 718.44-24.15 718.84-22.8L718.84-22.8Q719.14-21.8 719.79-21.35 720.44-20.9 721.39-20.35L721.39-20.35Q722.09-20 722.62-19.73 723.14-19.45 723.59-19.1L723.59-19.1 723.64-18.85Q723.09-17.75 721.97-17.53 720.84-17.3 719.59-17.95 718.34-18.6 717.24-19.95L717.24-19.95Q716.09-21.45 715.97-23.33 715.84-25.2 716.54-27.1 717.24-29 718.49-30.5L718.49-30.5Q720.74-33.25 723.57-33.75 726.39-34.25 728.84-32.35L728.84-32.35Q730.49-31.1 730.74-29.2 730.99-27.3 730.49-25.1 729.99-22.9 729.34-20.7L729.34-20.7 729.29-20.6Q728.89-19.2 728.49-17.82 728.09-16.45 727.99-15.25L727.99-15.25Q727.64-11.9 729.14-10.3 730.64-8.7 733.79-9.05L733.79-9.05Q737.19-9.45 739.72-11.73 742.24-14 743.39-17.65L743.39-17.65Q744.04-19.65 744.37-21.7 744.69-23.75 744.94-25.8L744.94-25.8Q745.14-27.55 745.39-29.3 745.64-31.05 746.09-32.8L746.09-32.8Q746.29-33.55 747.07-33.83 747.84-34.1 748.09-33.55L748.09-33.55Q748.74-32.1 748.54-30.38 748.34-28.65 747.94-26.9L747.94-26.9Q747.84-26.25 747.72-25.63 747.59-25 747.49-24.3L747.49-24.3Q747.19-22.45 746.89-20.68 746.59-18.9 746.29-17.15L746.29-17.15Q746.19-16.55 746.09-15.95 745.99-15.35 745.89-14.75L745.89-14.75Q745.59-13.05 745.29-11.3 744.99-9.55 744.74-7.65L744.74-7.65Q744.39-5.35 743.97-3.08 743.54-0.8 742.67 1.07 741.79 2.95 740.09 4.1 738.39 5.25 735.49 5.25Z" opacity="1" transform="matrix(1,0,0,1,0,0)" fill="#ffffff" class="slogan-text-1" data-fill-palette-color="secondary" id="text-1"></path></svg></g></svg></g></svg></g></svg></g><g transform="matrix(1,0,0,1,36.672,0)"><svg viewBox="0 0 118.656 77.79518836363636" height="77.79518836363636" width="118.656"><g><svg xmlns="http://www.w3.org/2000/svg" xmlns:xlink="http://www.w3.org/1999/xlink" version="1.1" x="0" y="0" viewBox="6.5 15.496000000000006 77 50.483999999999995" enable-background="new 0 0 90 90" xml:space="preserve" height="77.79518836363636" width="118.656" class="icon-icon-0" data-fill-palette-color="accent" id="icon-0"><path fill="#ffffff" d="M34.496 44.861l-1.083 2.062-4.148-10.413-2.608 5.751-1.729-2.189 3.667-10.424 4.735 10.68L41.4 58.375l17.928-14.751 0 0 6.834-5.877 4.264 9.156-4.589 2.851-3.069-4.862-2.901 2.735-1.753-1.982L41.733 59.12l3.015 6.74L83.5 65.739 73.003 45.269l-1.906 1.216-4.662-10.016-6.568 5.657-15.463-26.63L31.685 34.677l-3.174-7.166L23.22 42.555l-3.635-4.326L6.5 65.98l37.388-0.117L34.496 44.861zM44.361 16.983l3.52 6.065-1.1 1.499-1.761-2.378-2.587 5.175-2.378-3.855L44.361 16.983z" data-fill-palette-color="accent"></path></svg></g></svg></g><g></g></svg></g></svg></g></svg></g></svg></g><defs></defs></svg><rect width="320" height="360" fill="none" stroke="none" visibility="hidden"></rect></g></svg></g></svg>